<?xml version="1.0" standalone="no"?>
<!DOCTYPE svg PUBLIC "-//W3C//DTD SVG 20010904//EN"
 "http://www.w3.org/TR/2001/REC-SVG-20010904/DTD/svg10.dtd">
<svg version="1.0" xmlns="http://www.w3.org/2000/svg"
 width="1890.000000pt" height="1417.000000pt" viewBox="0 0 1890.000000 1417.000000"
 preserveAspectRatio="xMidYMid meet">

<g transform="translate(0.000000,1417.000000) scale(0.100000,-0.100000)"
fill="#000000" stroke="none">
<path d="M7510 12290 c-411 -14 -643 -39 -872 -96 -160 -40 -216 -41 -266 -5
l-31 22 -45 -61 c-25 -33 -55 -82 -68 -109 l-23 -49 -115 -36 c-63 -19 -128
-39 -144 -42 -16 -4 -41 -13 -55 -20 -39 -21 -142 -16 -281 11 -140 28 -212
32 -228 12 -9 -10 -3 -26 22 -63 93 -137 238 -199 412 -175 85 12 200 42 277
72 26 11 52 19 57 19 6 0 10 -54 10 -133 0 -241 56 -359 207 -436 49 -25 153
-51 203 -51 23 0 42 -7 53 -20 9 -11 14 -20 11 -20 -4 0 -1 -6 5 -13 6 -8 8
-17 4 -20 -3 -4 -1 -7 6 -7 7 0 10 -4 6 -9 -3 -5 2 -16 10 -25 8 -8 19 -25 23
-37 7 -18 12 -4 25 65 9 49 17 89 19 90 2 2 44 13 95 25 51 12 157 46 237 76
79 30 199 70 267 89 123 35 358 81 367 71 13 -13 -28 -582 -59 -805 -65 -473
-115 -710 -254 -1210 -42 -151 -114 -421 -160 -600 -46 -179 -138 -532 -205
-785 -390 -1485 -728 -2923 -961 -4090 -189 -947 -249 -1342 -249 -1641 0
-256 39 -408 132 -509 86 -95 181 -122 365 -104 277 26 490 165 612 399 61
116 68 161 75 460 11 458 34 770 82 1115 49 346 207 1068 361 1643 l46 172 35
0 c31 0 34 -2 28 -22 -70 -239 -132 -534 -162 -773 -26 -198 -26 -594 -1 -720
51 -258 145 -452 291 -604 129 -133 274 -217 464 -269 91 -24 111 -26 317 -26
233 -1 333 10 540 59 289 68 595 205 900 406 179 117 308 224 455 375 258 265
360 444 360 630 0 156 -64 232 -164 194 -39 -15 -103 -77 -184 -180 -100 -127
-304 -329 -423 -418 -317 -237 -663 -390 -1025 -453 -157 -27 -453 -33 -544
-10 -212 52 -359 206 -414 433 -65 265 -29 688 99 1183 72 278 64 259 115 267
25 4 119 19 210 33 1495 237 2718 688 3560 1313 271 201 562 473 730 682 330
412 534 895 581 1376 15 150 6 491 -16 634 -63 412 -215 774 -464 1103 -107
142 -228 267 -257 267 -40 0 -114 43 -343 198 -289 196 -484 312 -736 437
-566 282 -1188 478 -1900 600 -620 107 -1219 140 -2025 115z m1690 -1188 c124
-25 242 -46 262 -46 25 0 33 -3 25 -9 -8 -6 -3 -7 12 -3 33 7 165 -25 148 -37
-7 -5 -4 -6 10 -2 43 12 600 -159 888 -272 194 -77 690 -324 872 -435 84 -51
209 -132 277 -180 118 -83 127 -92 191 -188 127 -191 221 -410 267 -624 19
-86 22 -132 22 -311 0 -180 -3 -225 -23 -315 -59 -278 -174 -518 -352 -735
-31 -38 -68 -81 -83 -94 -17 -16 -26 -35 -26 -54 0 -52 -60 -147 -157 -245
-50 -52 -96 -91 -102 -88 -5 4 -25 -7 -44 -24 -19 -16 -40 -30 -46 -30 -7 0
-23 -8 -37 -17 -14 -9 -42 -17 -63 -18 -20 0 -42 -5 -49 -9 -9 -5 -15 -1 -19
13 -3 12 -7 21 -9 21 -2 0 -57 -32 -121 -70 l-118 -70 -11 104 c-25 226 -104
396 -246 533 -197 188 -460 276 -781 259 -411 -21 -788 -205 -1137 -555 -265
-266 -537 -640 -732 -1008 -33 -62 -67 -122 -76 -132 -14 -16 -36 -21 -121
-26 -98 -7 -103 -6 -97 11 3 11 51 195 106 409 56 215 130 498 165 630 35 132
87 335 116 450 28 116 125 503 216 860 192 758 404 1622 468 1903 41 183 95
443 95 458 0 8 50 -1 310 -54z m804 -3521 c33 -11 77 -33 98 -47 54 -38 124
-133 170 -234 22 -47 61 -127 86 -179 26 -52 48 -98 50 -102 3 -7 -124 -60
-278 -115 -131 -47 -141 -53 -130 -75 7 -12 6 -22 -5 -33 -8 -8 -15 -21 -15
-28 -1 -17 -24 -48 -37 -48 -5 0 -18 -9 -28 -20 -10 -11 -22 -20 -27 -20 -5 0
-33 -11 -61 -25 -56 -26 -345 -110 -354 -102 -2 3 -19 1 -36 -5 -39 -12 -238
-18 -232 -7 6 9 -34 23 -42 15 -4 -3 -15 1 -25 11 -17 15 -17 18 -3 40 9 12
14 23 11 23 -2 0 -48 -9 -102 -20 -54 -11 -177 -34 -274 -50 -96 -17 -186 -33
-199 -36 -23 -5 -23 -5 9 53 18 32 71 116 117 188 326 496 625 756 953 830 94
21 276 14 354 -14z"/>
<path d="M13884 4903 c-733 -1069 -1505 -1856 -2431 -2477 -961 -643 -2209
-1152 -3408 -1390 -452 -90 -457 -90 -890 -89 -214 0 -599 1 -855 1 -256 0
-571 0 -700 0 -129 0 -254 5 -277 10 -27 6 -43 6 -45 0 -5 -14 -221 36 -378
88 -78 26 -201 78 -292 124 -86 44 -181 86 -211 95 -52 15 -107 12 -107 -5 0
-21 98 -125 168 -177 256 -193 677 -320 1262 -380 219 -22 957 -25 1195 -5
910 78 1653 238 2475 534 1265 456 2304 1083 3149 1902 623 604 1107 1229
1432 1850 39 75 69 136 66 136 -2 0 -71 -98 -153 -217z"/>
</g>
</svg>
